<svg width="90" height="88" viewBox="0 0 90 88" fill="none" xmlns="http://www.w3.org/2000/svg">
<path d="M45 0.113739C20.1375 0.113739 0 20.2625 0 45.1137C0 65 12.8925 81.8637 30.7687 87.8075C33.0187 88.2312 33.8437 86.84 33.8437 85.6437C33.8437 84.575 33.8063 81.7437 33.7875 77.9937C21.27 80.7087 18.63 71.9562 18.63 71.9562C16.5825 66.7625 13.6237 65.375 13.6237 65.375C9.5475 62.585 13.9388 62.6412 13.9388 62.6412C18.4575 62.9562 20.8312 67.2762 20.8312 67.2762C24.8437 74.1575 31.365 72.17 33.9375 71.0187C34.3425 68.1087 35.5013 66.125 36.7875 65C26.7938 63.875 16.29 60.005 16.29 42.7625C16.29 37.85 18.0338 33.8375 20.9212 30.6875C20.415 29.5512 18.8963 24.9762 21.315 18.7775C21.315 18.7775 25.0838 17.57 33.69 23.39C37.29 22.3887 41.115 21.8937 44.94 21.8712C48.765 21.8937 52.59 22.3887 56.19 23.39C64.74 17.57 68.5087 18.7775 68.5087 18.7775C70.9275 24.9762 69.4087 29.5512 68.9587 30.6875C71.8275 33.8375 73.5712 37.85 73.5712 42.7625C73.5712 60.05 63.0525 63.8562 53.04 64.9625C54.615 66.3125 56.0775 69.0725 56.0775 73.2875C56.0775 79.31 56.0213 84.1475 56.0213 85.61C56.0213 86.7912 56.8087 88.1975 59.115 87.7475C77.1188 81.845 90 64.97 90 45.1137C90 20.2625 69.8512 0.113739 45 0.113739" fill="#EA0B8C"/>
</svg>
