<svg width="90" height="90" viewBox="0 0 90 90" fill="none" xmlns="http://www.w3.org/2000/svg">
<path fill-rule="evenodd" clip-rule="evenodd" d="M48.7384 40.4209V40.2893C48.7115 40.3334 48.6744 40.3776 48.651 40.4209H48.7384Z" fill="#EA0B8C"/>
<path fill-rule="evenodd" clip-rule="evenodd" d="M0 0V90H90V0H0ZM27.9934 74.7696H14.6405V34.5968H27.9934V74.7696ZM21.3169 29.1137H21.2287C16.7495 29.1137 13.8462 26.0278 13.8462 22.1707C13.8462 18.2289 16.8344 15.2304 21.4044 15.2304C25.9754 15.2304 28.7844 18.2289 28.8718 22.1707C28.8718 26.0278 25.9754 29.1137 21.3169 29.1137ZM76.1538 74.7696H62.7975V53.277C62.7975 47.8788 60.8677 44.194 56.0336 44.194C52.3418 44.194 50.148 46.675 49.1815 49.0783C48.8302 49.9367 48.7385 51.1301 48.7385 52.3339V74.7698H35.3795C35.3795 74.7698 35.5585 38.3657 35.3795 34.597H48.7385V40.2895C50.5133 37.5585 53.6808 33.6539 60.7759 33.6539C69.5657 33.6539 76.1538 39.3941 76.1538 51.7326V74.7696Z" fill="#EA0B8C"/>
</svg>
